<?xml version="1.0" encoding="utf-8"?>
<!-- Generator: Adobe Illustrator 18.0.0, SVG Export Plug-In . SVG Version: 6.00 Build 0)  -->
<!DOCTYPE svg PUBLIC "-//W3C//DTD SVG 1.1//EN" "http://www.w3.org/Graphics/SVG/1.1/DTD/svg11.dtd">
<svg version="1.1" id="ecommerce_1_" xmlns="http://www.w3.org/2000/svg" xmlns:xlink="http://www.w3.org/1999/xlink" x="0px"
	 y="0px" viewBox="0 0 115 115" style="enable-background:new 0 0 115 115;" xml:space="preserve">
<style type="text/css">
	.st0{fill:#FFEEAD;}
	.st1{fill:#C9B77D;}
	.st2{fill:#99734A;}
	.st3{fill:#FF6F69;}
	.st4{fill:#96CEB4;}
	.st5{fill:none;}
	.st6{fill:#AA9865;}
	.st7{fill:#71A58A;}
	.st8{fill:#FFCC5C;}
	.st9{fill:#825E3B;}
	.st10{fill:#639376;}
	.st11{fill:#E05858;}
	.st12{fill:#C1821E;}
	.st13{fill:#D6A041;}
	.st14{fill:#B28559;}
	.st15{fill:#BF4343;}
	.st16{fill:#D3C089;}
	.st17{fill:#7C5C3C;}
	.st18{fill:#FDCC5C;}
	.st19{fill:#FFFFFF;}
</style>
<g id="price_tag_1_">
	<g>
		<g>
			<path class="st3" d="M112.298,67.804L92.03,50.569c-1.387-1.18-3.149-1.827-4.97-1.827H7.672C3.435,48.742,0,52.177,0,56.414
				v34.469c0,4.237,3.435,7.672,7.672,7.672H87.06c1.821,0,3.583-0.648,4.97-1.827l20.268-17.234
				C115.901,76.429,115.901,70.867,112.298,67.804z"/>
		</g>
	</g>
	<g>
		<g>
			<path class="st0" d="M66.965,55.191H13.839c-3.746,0-6.783,3.037-6.783,6.783v23.35c0,3.746,3.037,6.783,6.783,6.783h53.126
				c3.746,0,6.783-3.037,6.783-6.783v-23.35C73.748,58.227,70.711,55.191,66.965,55.191z"/>
		</g>
	</g>
	<g>
		<g>
			<path class="st11" d="M108.445,64.528c-3.883,6.593-9.512,10.205-12.243,9.906c-0.69-0.074-1.379,0.131-1.535,0.46
				c-0.158,0.329,0.274,0.657,0.964,0.732c0.296,0.032,0.591,0.048,0.889,0.048c5.01,0,10.239-4.456,13.669-9.663L108.445,64.528z"
				/>
		</g>
	</g>
	<g>
		<g>
			<circle class="st2" cx="95.639" cy="74.148" r="3.939"/>
		</g>
	</g>
	<g>
		<g>
			<path class="st4" d="M109.115,16.547c-2.91-0.662-6.125,1.935-9.301,7.522c-2.885,5.078-5.438,12.097-7.188,19.764
				c-0.481,2.101-0.878,4.203-1.208,6.268c0.056,0.038,1.26,1.045,2.105,1.735c0.149-0.176,0.27-0.378,0.307-0.623
				c0.337-2.233,0.773-4.523,1.295-6.809c1.698-7.431,4.154-14.203,6.919-19.069c2.882-5.071,5.244-6.58,6.5-6.288
				c3.026,0.691,4.899,11.932,1.078,28.668c-3.825,16.74-10.399,26.051-13.42,25.358c-0.69-0.156-1.379,0.274-1.535,0.965
				c-0.158,0.69,0.274,1.378,0.964,1.536c0.296,0.067,0.591,0.1,0.889,0.1c6.078,0,12.486-13.748,15.601-27.387
				C115.389,33.979,115.445,17.993,109.115,16.547z"/>
		</g>
	</g>
	<g>
		<g>
			<path class="st7" d="M60.925,72.324c-2.217-1.688-3.309-2.515-3.309-3.309c0-0.232,0.132-0.497,0.43-0.497
				c0.265,0,0.86,1.258,1.092,1.258l4.534-0.232c0.231-0.033,0.364-0.165,0.364-0.364c0-2.912-1.853-5.427-4.897-6.056
				c0-1.952,0-2.151-0.265-2.151h-2.416c-0.132,0-0.231,0.132-0.231,0.298v1.82c-3.078,0.629-4.732,3.276-4.732,5.791
				c0,2.383,1.224,4.335,3.111,5.692c2.614,1.886,3.409,2.614,3.409,3.474c0,0.43-0.298,0.728-0.728,0.728
				c-0.761,0-1.291-0.695-1.522-1.853c-0.066-0.298-0.166-0.364-0.364-0.364l-4.203,0.232c-0.166,0.033-0.264,0.132-0.264,0.297
				c0,3.905,1.82,6.188,5.295,6.817c0,1.985,0,2.217,0.264,2.217h2.383c0.132,0,0.265-0.132,0.265-0.265v-1.919
				c3.078-0.596,4.931-2.846,4.931-6.155C64.069,75.732,62.977,73.879,60.925,72.324z"/>
		</g>
	</g>
	<g>
		<g>
			<path class="st7" d="M38.907,61.963H13.759c-0.558,0-1.015,0.457-1.015,1.015v0.176c0,0.558,0.457,1.015,1.015,1.015h25.148
				c0.558,0,1.015-0.457,1.015-1.015v-0.176C39.922,62.419,39.465,61.963,38.907,61.963z"/>
		</g>
	</g>
	<g>
		<g>
			<path class="st7" d="M38.907,67.504H13.759c-0.558,0-1.015,0.457-1.015,1.015v0.176c0,0.558,0.457,1.015,1.015,1.015h25.148
				c0.558,0,1.015-0.457,1.015-1.015v-0.176C39.922,67.96,39.465,67.504,38.907,67.504z"/>
		</g>
	</g>
	<g>
		<g>
			<path class="st7" d="M38.907,73.045H13.759c-0.558,0-1.015,0.457-1.015,1.015v0.176c0,0.558,0.457,1.015,1.015,1.015h25.148
				c0.558,0,1.015-0.457,1.015-1.015V74.06C39.922,73.502,39.465,73.045,38.907,73.045z"/>
		</g>
	</g>
	<g>
		<g>
			<path class="st7" d="M38.907,78.586H13.759c-0.558,0-1.015,0.457-1.015,1.015v0.176c0,0.558,0.457,1.015,1.015,1.015h25.148
				c0.558,0,1.015-0.457,1.015-1.015v-0.176C39.922,79.043,39.465,78.586,38.907,78.586z"/>
		</g>
	</g>
	<g>
		<g>
			<path class="st7" d="M38.907,84.128H13.759c-0.558,0-1.015,0.457-1.015,1.015v0.176c0,0.558,0.457,1.015,1.015,1.015h25.148
				c0.558,0,1.015-0.457,1.015-1.015v-0.176C39.922,84.584,39.465,84.128,38.907,84.128z"/>
		</g>
	</g>
</g>
</svg>
